<?xml version="1.0" encoding="ISO-8859-1" standalone="yes"?>
<svg width="257.077" height="255.75">
<g>
<g>
<path style="stroke:#000000; stroke-width:0.5; fill:none; font-family:Times; font-size:12.0" d="M 58.306 29.5291L 58.306 56.2352"/>
<path style="stroke:#000000; stroke-width:0.5; fill:none; font-family:Times; font-size:12.0" d="M 58.306 76.6043L 58.306 100.142"/>
<path style="stroke:#000000; stroke-width:0.5; fill:none; font-family:Times; font-size:12.0" d="M 58.306 120.964L 58.306 144.049"/>
<path style="stroke:#000000; stroke-width:0.5; fill:none; font-family:Times; font-size:12.0" d="M 58.306 164.418L 58.2614 188.408"/>
<path style="stroke:#000000; stroke-width:0.5; fill:none; font-family:Times; font-size:12.0" d="M 59.664 208.325L 15.7572 230.504"/>
<path style="stroke:#000000; stroke-width:0.5; fill:none; font-family:Times; font-size:12.0" d="M 58.306 208.777L 98.1389 231.41"/>
<path style="stroke:#000000; stroke-width:1.0; fill:#ffb9c4; font-family:Times; font-size:12.0" d="M 52.8606 209.162L 64.8606 209.162C 67.0685 209.162 68.8606 207.37 68.8606 205.162L 68.8606 193.162C 68.8606 190.954 67.0685 189.162 64.8606 189.162L 52.8606 189.162C 50.6527 189.162 48.8606 190.954 48.8606 193.162L 48.8606 205.162C 48.8606 207.37 50.6527 209.162 52.8606 209.162L 52.8606 209.162L 52.8606 209.162z"/>
<text style="stroke:none; fill:#000000; font-family:Times; font-size:12.0" transform="matrix(1 0 0 1 90.6498 202.031)">
VBox
</text >
<path style="stroke:#000000; stroke-width:1.0; fill:#ffb9c4; font-family:Times; font-size:12.0" d="M 52.8606 165.024L 64.8606 165.024C 67.0685 165.024 68.8606 163.232 68.8606 161.024L 68.8606 149.024C 68.8606 146.817 67.0685 145.024 64.8606 145.024L 52.8606 145.024C 50.6527 145.024 48.8606 146.817 48.8606 149.024L 48.8606 161.024C 48.8606 163.232 50.6527 165.024 52.8606 165.024L 52.8606 165.024L 52.8606 165.024z"/>
<text style="stroke:none; fill:#000000; font-family:Times; font-size:12.0" transform="matrix(1 0 0 1 90.6498 157.894)">
Margin
</text >
<path style="stroke:#000000; stroke-width:1.0; fill:#8ec4e7; font-family:Times; font-size:12.0" d="M 52.8606 120.871L 64.8606 120.871C 67.0685 120.871 68.8606 119.078 68.8606 116.871L 68.8606 104.871C 68.8606 102.663 67.0685 100.871 64.8606 100.871L 52.8606 100.871C 50.6527 100.871 48.8606 102.663 48.8606 104.871L 48.8606 116.871C 48.8606 119.078 50.6527 120.871 52.8606 120.871L 52.8606 120.871L 52.8606 120.871z"/>
<text style="stroke:none; fill:#000000; font-family:Times; font-size:12.0" transform="matrix(1 0 0 1 90.6498 113.74)">
Texture
</text >
<path style="stroke:#000000; stroke-width:1.0; fill:#b8ffb8; font-family:Times; font-size:12.0" d="M 52.8606 76.6165L 64.8606 76.6165C 67.0685 76.6165 68.8606 74.8244 68.8606 72.6165L 68.8606 60.6165C 68.8606 58.4086 67.0685 56.6165 64.8606 56.6165L 52.8606 56.6165C 50.6527 56.6165 48.8606 58.4086 48.8606 60.6165L 48.8606 72.6165C 48.8606 74.8244 50.6527 76.6165 52.8606 76.6165L 52.8606 76.6165L 52.8606 76.6165z"/>
<text style="stroke:none; fill:#000000; font-family:Times; font-size:12.0" transform="matrix(1 0 0 1 90.6498 69.486)">
Frame
</text >
<path style="stroke:#000000; stroke-width:2.0; fill:#b8ffb8; font-family:Times; font-size:12.0" d="M 48.8606 30.4817L 68.8606 30.4817L 68.8606 10.4817L 48.8606 10.4817L 48.8606 30.4817L 48.8606 30.4817L 48.8606 30.4817z"/>
<text style="stroke:none; fill:#000000; font-family:Times; font-size:12.0" transform="matrix(1 0 0 1 90.6498 23.3512)">
Trigger
</text >
<g>
<path style="stroke:#000000; stroke-width:1.0; fill:#8ec4e7; font-family:Times; font-size:12.0" d="M 9.24084 250.509L 21.2408 250.509C 23.4487 250.509 25.2408 248.717 25.2408 246.509L 25.2408 234.509C 25.2408 232.301 23.4487 230.509 21.2408 230.509L 9.24084 230.509C 7.03296 230.509 5.24084 232.301 5.24084 234.509L 5.24084 246.509C 5.24084 248.717 7.03296 250.509 9.24084 250.509L 9.24084 250.509L 9.24084 250.509z"/>
<text style="stroke:none; fill:#000000; font-family:Times; font-size:12.0" transform="matrix(1 0 0 1 36.1263 243.305)">
Image
</text >
</g>
<g>
<path style="stroke:#000000; stroke-width:1.0; fill:#cccccc; font-family:Times; font-size:12.0" d="M 91.1204 250.509L 103.12 250.509C 105.328 250.509 107.12 248.717 107.12 246.509L 107.12 234.509C 107.12 232.301 105.328 230.509 103.12 230.509L 91.1204 230.509C 88.9125 230.509 87.1204 232.301 87.1204 234.509L 87.1204 246.509C 87.1204 248.717 88.9125 250.509 91.1204 250.509L 91.1204 250.509L 91.1204 250.509z"/>
<text style="stroke:none; fill:#000000; font-family:Times; font-size:12.0" transform="matrix(1 0 0 1 119.866 243.305)">
Label
</text >
</g>
</g>
<path style="stroke:#000000; stroke-width:1; fill:#b8ffb8" d="M 171.188 33.4224L 186.188 33.4224L 186.188 18.4224L 171.188 18.4224L 171.188 33.4224z"/>
<path style="stroke:#000000; stroke-width:1; fill:#8ec4e7" d="M 171.188 61.45L 186.188 61.45L 186.188 46.45L 171.188 46.45L 171.188 61.45z"/>
<path style="stroke:#000000; stroke-width:1; fill:#ffb9c4" d="M 171.188 90.7812L 186.188 90.7812L 186.188 75.7812L 171.188 75.7812L 171.188 90.7812z"/>
<path style="stroke:#000000; stroke-width:1; fill:#cccccc" d="M 171.188 120.295L 186.188 120.295L 186.188 105.295L 171.188 105.295L 171.188 120.295z"/>
<text style="stroke:none; fill:#000000; font-family:Times; font-size:12" transform="matrix(1 0 0 1 205.733 28.7184)">
ToolKit
</text >
<text style="stroke:none; fill:#000000; font-family:Times; font-size:12" transform="matrix(1 0 0 1 205.733 56.746)">
ImageKit
</text >
<text style="stroke:none; fill:#000000; font-family:Times; font-size:12" transform="matrix(1 0 0 1 205.733 86.0772)">
LayoutKit
</text >
<text style="stroke:none; fill:#000000; font-family:Times; font-size:12" transform="matrix(1 0 0 1 205.733 115.591)">
TextKit
</text >
</g>
</svg>