<?xml version="1.0" encoding="iso-8859-1"?>
<!DOCTYPE svg PUBLIC "-//W3C//DTD SVG 20000802//EN"
"http://www.w3.org/TR/2000/CR-SVG-20000802/DTD/svg-20000802.dtd">
<svg width="4.322916666666667in" height="4.270833333333333in" viewBox="25 115 415 410">
	<polygon points="173,273 173,250 35,250 35,370 430,370 430,273 35,273 " 
		style="fill:#ccccff; stroke:#424242; stroke-width:1; stroke-dasharray:0 "/>
	<text x="83" y="266" 
		style="font-family:Verdana; font-weight:bold; font-size:13; fill:#000000">Motif</text>
	<rect x="60" y="290" width="63" height="57" 
		style="fill:#ffcc99; stroke:#424242; stroke-width:1; stroke-dasharray:0 "/>
	<text x="83" y="303" 
		style="font-family:Verdana; font-weight:bold; font-size:10; fill:#000000">Kit</text>
	<line x1="60" y1="313" x2="123" y2="313" 
		style="fill:none; stroke:#424242; stroke-width:1; stroke-dasharray:0 "/>
	<text x="63" y="323" 
		style="font-family:Verdana; font-size:10; fill:#000000">button()</text>
	<ellipse
		cx="106" cy="320"
		rx="2" ry="2"
		style="fill:none; stroke:#424242; stroke-width:1; stroke-dasharray:0 "/>
	<text x="63" y="337" 
		style="font-family:Verdana; font-size:10; fill:#000000">toolbar()</text>
	<ellipse
		cx="111" cy="334"
		rx="2" ry="2"
		style="fill:none; stroke:#424242; stroke-width:1; stroke-dasharray:0 "/>
	<rect x="310" y="330" width="59" height="30" 
		style="fill:#ffcc99; stroke:#424242; stroke-width:1; stroke-dasharray:0 "/>
	<text x="314" y="343" 
		style="font-family:Verdana; font-weight:bold; font-size:10; fill:#000000">MChoice</text>
	<rect x="220" y="300" width="59" height="26" 
		style="fill:#ffcc99; stroke:#424242; stroke-width:1; stroke-dasharray:0 "/>
	<text x="224" y="313" 
		style="font-family:Verdana; font-weight:bold; font-size:10; fill:#000000">MButton</text>
	<polygon points="202,423 202,400 80,400 80,520 430,520 430,423 80,423 " 
		style="fill:#ccccff; stroke:#424242; stroke-width:1; stroke-dasharray:0 "/>
	<text x="100" y="416" 
		style="font-family:Verdana; font-weight:bold; font-size:13; fill:#000000">OpenLook</text>
	<rect x="100" y="440" width="88" height="57" 
		style="fill:#ffcc99; stroke:#424242; stroke-width:1; stroke-dasharray:0 "/>
	<text x="136" y="453" 
		style="font-family:Verdana; font-weight:bold; font-size:10; fill:#000000">Kit</text>
	<line x1="100" y1="463" x2="188" y2="463" 
		style="fill:none; stroke:#424242; stroke-width:1; stroke-dasharray:0 "/>
	<text x="103" y="473" 
		style="font-family:Verdana; font-size:10; fill:#000000">button()</text>
	<ellipse
		cx="146" cy="470"
		rx="2" ry="2"
		style="fill:none; stroke:#424242; stroke-width:1; stroke-dasharray:0 "/>
	<text x="103" y="487" 
		style="font-family:Verdana; font-size:10; fill:#000000">toolbar()</text>
	<ellipse
		cx="151" cy="484"
		rx="2" ry="2"
		style="fill:none; stroke:#424242; stroke-width:1; stroke-dasharray:0 "/>
	<rect x="250" y="450" width="65" height="26" 
		style="fill:#ffcc99; stroke:#424242; stroke-width:1; stroke-dasharray:0 "/>
	<text x="254" y="463" 
		style="font-family:Verdana; font-weight:bold; font-size:10; fill:#000000">OLButton</text>
	<rect x="360" y="470" width="65" height="26" 
		style="fill:#ffcc99; stroke:#424242; stroke-width:1; stroke-dasharray:0 "/>
	<text x="363" y="483" 
		style="font-family:Verdana; font-weight:bold; font-size:10; fill:#000000">OLChoice</text>
	<rect x="100" y="160" width="67" height="57" 
		style="fill:#ffcc99; stroke:#424242; stroke-width:1; stroke-dasharray:0 "/>
	<text x="103" y="173" 
		style="font-family:Verdana; font-weight:bold; font-size:10; fill:#000000">WidgetKit</text>
	<line x1="100" y1="183" x2="167" y2="183" 
		style="fill:none; stroke:#424242; stroke-width:1; stroke-dasharray:0 "/>
	<text x="103" y="193" 
		style="font-family:Verdana; font-size:10; fill:#000000">button()</text>
	<text x="103" y="207" 
		style="font-family:Verdana; font-size:10; fill:#000000">toolkit()</text>
	<rect x="240" y="180" width="59" height="30" 
		style="fill:#ffcc99; stroke:#424242; stroke-width:1; stroke-dasharray:0 "/>
	<text x="249" y="193" 
		style="font-family:Verdana; font-weight:bold; font-size:10; fill:#000000">Button</text>
	<polygon points="133,217 130,224 136,224 " 
		style="fill:none; stroke:#000000; stroke-width:1; stroke-dasharray:0 "/>
	<line x1="133" y1="223" x2="133" y2="233" 
		style="fill:none; stroke:#000000; stroke-width:1; stroke-dasharray:10 "/>
	<line x1="91" y1="233" x2="144" y2="233" 
		style="fill:none; stroke:#000000; stroke-width:1; stroke-dasharray:10 "/>
	<rect x="340" y="180" width="48" height="30" 
		style="fill:#ffcc99; stroke:#424242; stroke-width:1; stroke-dasharray:0 "/>
	<text x="343" y="193"
		style="font-family:Verdana; font-weight:bold; font-size:10; fill:#000000">Choice</text>
	<polygon points="364,210 361,217 367,217 " 
		style="fill:none; stroke:#000000; stroke-width:1; stroke-dasharray:0 "/>
	<line x1="364" y1="216" x2="364" y2="226" 
		style="fill:none; stroke:#000000; stroke-width:1; stroke-dasharray:10 "/>
	<line x1="338" y1="226" x2="379" y2="226" 
		style="fill:none; stroke:#000000; stroke-width:1; stroke-dasharray:10 "/>
	<polygon points="269,210 266,217 272,217 "
		style="fill:none; stroke:#000000; stroke-width:1; stroke-dasharray:0 "/>
	<line x1="269" y1="216" x2="269" y2="226"
		style="fill:none; stroke:#000000; stroke-width:1; stroke-dasharray:10 "/>
	<line x1="249" y1="226" x2="282" y2="226"
		style="fill:none; stroke:#000000; stroke-width:1; stroke-dasharray:10 "/>
	<line x1="310" y1="335" x2="303" y2="332" 
		style="fill:none; stroke:#424242; stroke-width:1; stroke-dasharray:0 "/>
	<line x1="310" y1="335" x2="303" y2="338"
		style="fill:none; stroke:#424242; stroke-width:1; stroke-dasharray:0 "/>
	<line x1="310" y1="335" x2="111" y2="335"
		style="fill:none; stroke:#424242; stroke-width:1; stroke-dasharray:10 "/>
	<line x1="220" y1="320" x2="213" y2="317"
		style="fill:none; stroke:#424242; stroke-width:1; stroke-dasharray:0 "/>
	<line x1="220" y1="320" x2="213" y2="323"
		style="fill:none; stroke:#424242; stroke-width:1; stroke-dasharray:0 "/>
	<line x1="220" y1="320" x2="106" y2="320"
		style="fill:none; stroke:#424242; stroke-width:1; stroke-dasharray:10 "/>
	<line x1="250" y1="470" x2="243" y2="467"
		style="fill:none; stroke:#424242; stroke-width:1; stroke-dasharray:0 "/>
	<line x1="250" y1="470" x2="243" y2="473"
		style="fill:none; stroke:#424242; stroke-width:1; stroke-dasharray:0 "/>
	<line x1="250" y1="470" x2="146" y2="470"
		style="fill:none; stroke:#424242; stroke-width:1; stroke-dasharray:10 "/>
	<line x1="360" y1="483" x2="353" y2="480" 
		style="fill:none; stroke:#424242; stroke-width:1; stroke-dasharray:0 "/>
	<line x1="360" y1="483" x2="353" y2="486" 
		style="fill:none; stroke:#424242; stroke-width:1; stroke-dasharray:0 "/>
	<line x1="360" y1="483" x2="151" y2="483" 
		style="fill:none; stroke:#424242; stroke-width:1; stroke-dasharray:10 "/>
	<line x1="379" y1="226" x2="379" y2="470" 
		style="fill:none; stroke:#424242; stroke-width:1; stroke-dasharray:10 "/>
	<line x1="282" y1="226" x2="282" y2="450" 
		style="fill:none; stroke:#424242; stroke-width:1; stroke-dasharray:10 "/>
	<line x1="144" y1="233" x2="144" y2="440" 
		style="fill:none; stroke:#424242; stroke-width:1; stroke-dasharray:10 "/>
	<line x1="338" y1="226" x2="338" y2="330" 
		style="fill:none; stroke:#424242; stroke-width:1; stroke-dasharray:10 "/>
	<line x1="249" y1="226" x2="249" y2="300" 
		style="fill:none; stroke:#424242; stroke-width:1; stroke-dasharray:10 "/>
	<line x1="91" y1="233" x2="91" y2="290" 
		style="fill:none; stroke:#424242; stroke-width:1; stroke-dasharray:10 "/>
</svg>
