<?xml version="1.0" encoding="ISO-8859-1" standalone="yes"?>
<svg width="325.207" height="164.456">
<g>
<text style="stroke:none; fill:#000000; font-family:Times; font-size:12" transform="matrix(1 0 0 1 211.59 49.7347)">
DesktopImpl
</text >
<path style="stroke:#000000; stroke-width:2; fill:none" d="M 178.639 60.5903L 198.639 60.5903L 198.639 40.5903L 178.639 40.5903L 178.639 60.5903z"/>
<path style="stroke:#000000; stroke-width:2; fill:none" d="M 136.234 94.6193L 156.234 94.6193L 156.234 74.6193L 136.234 74.6193L 136.234 94.6193z"/>
<path style="stroke:#000000; stroke-width:2; fill:none" d="M 179.302 94.6193L 199.302 94.6193L 199.302 74.6193L 179.302 74.6193L 179.302 94.6193z"/>
<path style="stroke:#000000; stroke-width:2; fill:none" d="M 221.044 94.6193L 241.044 94.6193L 241.044 74.6193L 221.044 74.6193L 221.044 94.6193z"/>
<path style="stroke:#000000; stroke-width:2; fill:none" d="M 211.698 153.974L 231.698 153.974L 231.698 133.974L 211.698 133.974L 211.698 153.974z"/>
<path style="stroke:#000000; stroke-width:2; fill:none" d="M 133.689 153.974L 153.689 153.974L 153.689 133.974L 133.689 133.974L 133.689 153.974z"/>
<path style="stroke:#000000; stroke-width:2; fill:none" d="M 93.9346 153.974L 113.935 153.974L 113.935 133.974L 93.9346 133.974L 93.9346 153.974z"/>
<path style="stroke:#000000; stroke-width:2; fill:none" d="M 52.8546 153.974L 72.8546 153.974L 72.8546 133.974L 52.8546 133.974L 52.8546 153.974z"/>
<text style="stroke:none; fill:#000000; font-family:Times; font-size:12.0" transform="matrix(1 0 0 1 211.59 23.2777)">
ScreenImpl
</text >
<text style="stroke:none; fill:#000000; font-family:Times; font-size:12.0" transform="matrix(1 0 0 1 259.463 87.6173)">
WindowImpl
</text >
<text style="stroke:none; fill:#000000; font-family:Times; font-size:12.0" transform="matrix(1 0 0 1 258.742 146.77)">
Editor
</text >
<text style="stroke:none; fill:#000000; font-family:Times; font-size:12.0" transform="matrix(1 0 0 1 2 148.388)">
Button
</text >
<path style="stroke:#000000; stroke-width:0.5; fill:none" d="M 187.253 61.9153L 187.253 74.5043"/>
<path style="stroke:#000000; stroke-width:0.5; fill:none" d="M 188.508 95.0006L 222.962 133.974"/>
<path style="stroke:#000000; stroke-width:0.5; fill:none" d="M 188.508 94.5743L 63.4076 133.974"/>
<path style="stroke:#000000; stroke-width:0.5; fill:none" d="M 188.081 95.0006L 104.899 133.974"/>
<path style="stroke:#000000; stroke-width:0.5; fill:none" d="M 188.081 95.0006L 144.02 133.974"/>
<path style="stroke:#000000; stroke-width:0.5; fill:none" d="M 187.253 61.9153L 146.984 74.3533"/>
<path style="stroke:#000000; stroke-width:0.5; fill:none" d="M 187.253 61.9153L 232.93 73.7603"/>
<path style="stroke:#000000; stroke-width:2; fill:none" d="M 179.232 30.4817L 199.232 30.4817L 199.232 10.4817L 179.232 10.4817L 179.232 30.4817z"/>
<path style="stroke:#000000; stroke-width:0.5; fill:none" d="M 188.57 30.1248L 188.57 40.3561"/>
</g>
</svg>