<?xml version="1.0" encoding="ISO-8859-1" standalone="yes"?>
<svg width="101.38" height="41.0507">
<g>
<path style="stroke:#000000; stroke-width:2; fill:none" d="M 10.4817 30.569L 30.4817 30.569L 30.4817 10.569L 10.4817 10.569L 10.4817 30.569z"/>
<path style="stroke:#000000; stroke-width:2; fill:none" d="M 30.4468 30.569L 50.4468 30.569L 50.4468 10.569L 30.4468 10.569L 30.4468 30.569z"/>
<path style="stroke:#000000; stroke-width:2; fill:none" d="M 50.412 30.569L 70.412 30.569L 70.412 10.569L 50.412 10.569L 50.412 30.569z"/>
<path style="stroke:#000000; stroke-width:2; fill:none" d="M 70.8985 30.4817L 90.8985 30.4817L 90.8985 10.4817L 70.8985 10.4817L 70.8985 30.4817z"/>
<text style="stroke:none; fill:#000000; font-family:Times; font-size:12" transform="matrix(1 0 0 1 17.1457 23.365)">
S
</text >
<text style="stroke:none; fill:#000000; font-family:Times; font-size:12" transform="matrix(1 0 0 1 36.1148 23.365)">
D
</text >
<text style="stroke:none; fill:#000000; font-family:Times; font-size:12" transform="matrix(1 0 0 1 54.748 23.365)">
W
</text >
<text style="stroke:none; fill:#000000; font-family:Times; font-size:12" transform="matrix(1 0 0 1 77.2325 23.2777)">
E
</text >
</g>
</svg>