<?xml version="1.0" encoding="ISO-8859-1" standalone="yes"?>
<svg width="176.867" height="41.5804">
<g>
<path style="stroke:#e0e0e0; stroke-width:2.0; fill:none" d="M 10.4817 30.4817L 30.4817 30.4817L 30.4817 10.4817L 10.4817 10.4817L 10.4817 30.4817z"/>
<path style="stroke:#e0e0e0; stroke-width:2.0; fill:none" d="M 30.4815 30.4817L 50.4815 30.4817L 50.4815 10.4817L 30.4815 10.4817L 30.4815 30.4817z"/>
<path style="stroke:#e0e0e0; stroke-width:1; fill:#c9ffdf" d="M 54.9375 31.0987L 66.9375 31.0987C 69.1454 31.0987 70.9375 29.3066 70.9375 27.0987L 70.9375 15.0987C 70.9375 12.8908 69.1454 11.0987 66.9375 11.0987L 54.9375 11.0987C 52.7296 11.0987 50.9375 12.8908 50.9375 15.0987L 50.9375 27.0987C 50.9375 29.3066 52.7296 31.0987 54.9375 31.0987z"/>
<path style="stroke:#e0e0e0; stroke-width:2; fill:none" d="M 70.9375 31.0987L 90.9375 31.0987L 90.9375 11.0987L 70.9375 11.0987L 70.9375 31.0987z"/>
<path style="stroke:#e0e0e0; stroke-width:1.0; fill:none" d="M 94.9375 31.0987L 106.937 31.0987C 109.145 31.0987 110.937 29.3066 110.937 27.0987L 110.937 15.0987C 110.937 12.8908 109.145 11.0987 106.937 11.0987L 94.9375 11.0987C 92.7296 11.0987 90.9375 12.8908 90.9375 15.0987L 90.9375 27.0987C 90.9375 29.3066 92.7296 31.0987 94.9375 31.0987z"/>
<path style="stroke:#000000; stroke-width:2; fill:none" d="M 111.036 30.7417L 131.036 30.7417L 131.036 10.7417L 111.036 10.7417L 111.036 30.7417z"/>
<path style="stroke:#000000; stroke-width:1; fill:none" d="M 135.394 30.7417L 147.394 30.7417C 149.602 30.7417 151.394 28.9496 151.394 26.7417L 151.394 14.7417C 151.394 12.5338 149.602 10.7417 147.394 10.7417L 135.394 10.7417C 133.187 10.7417 131.394 12.5338 131.394 14.7417L 131.394 26.7417C 131.394 28.9496 133.187 30.7417 135.394 30.7417z"/>
<path style="stroke:#000000; stroke-width:1; fill:#ffbbc4" d="M 155.626 30.7417L 167.626 30.7417C 169.834 30.7417 171.626 28.9496 171.626 26.7417L 171.626 14.7417C 171.626 12.5338 169.834 10.7417 167.626 10.7417L 155.626 10.7417C 153.419 10.7417 151.626 12.5338 151.626 14.7417L 151.626 26.7417C 151.626 28.9496 153.419 30.7417 155.626 30.7417z"/>
<text style="stroke:none; fill:#000000; font-family:Times; font-size:12.0" transform="matrix(1 0 0 1 117.37 23.5377)">
E
</text >
</g>
</svg>