<?xml version="1.0" encoding="ISO-8859-1" standalone="yes"?>
<svg width="441.427" height="417.725">
<g>
<path style="stroke:#000000; stroke-width:1; fill:#80e2aa" d="M 5.24084 5.24084L 436.186 5.24084L 436.186 412.484L 5.24084 412.484L 5.24084 5.24084z"/>
<path style="stroke:#000000; stroke-width:1; fill:#e5e5e5" d="M 56.9542 54.7996L 179.774 54.7996L 179.774 212.094L 56.9542 212.094L 56.9542 54.7996z"/>
<path style="stroke:#000000; stroke-width:1; fill:#ffffff" d="M 102.203 100.049L 378.008 100.049L 378.008 347.842L 102.203 347.842L 102.203 100.049z"/>
<path style="stroke:#000000; stroke-width:1; fill:none" d="M 186.935 103.553L 374.757 103.553L 374.757 344.403L 186.935 344.403L 186.935 103.553z"/>
<path style="stroke:#000000; stroke-width:1; fill:#f4f4f4" d="M 276.736 257.344L 414.638 257.344L 414.638 384.472L 276.736 384.472L 276.736 257.344z"/>
<path style="stroke:#000000; stroke-width:1; fill:#dddddd" d="M 104.883 103.375L 184.371 103.375L 184.371 344.403L 104.883 344.403L 104.883 103.375z"/>
<path style="stroke:none; fill:#8ec4e7" d="M 278.367 141.92L 286.263 178.37L 253.858 170.032L 278.367 141.92z" opacity="0.8"/>
<path style="stroke:none; fill:#b9ffb9" d="M 269.347 139.841L 281.125 175.227L 248.011 170.43L 269.347 139.841z"  opacity="0.8"/>
<path style="stroke:none; fill:#ffbbc4" d="M 253.876 142.005L 275.146 172.641L 242.021 177.366L 253.876 142.005z"  opacity="0.8"/>
<text style="stroke:none; fill:#000000; font-family:Times; font-size:12" transform="matrix(1 0 0 1 134.65 120.915)">
File
</text >
<text style="stroke:none; fill:#000000; font-family:Times; font-size:12" transform="matrix(1 0 0 1 133.984 145.915)">
Edit
</text >
<text style="stroke:none; fill:#000000; font-family:Times; font-size:12" transform="matrix(1 0 0 1 130.99 170.915)">
View
</text >
<g>
<path style="stroke:#000000; stroke-width:1; fill:none" d="M 118.986 107.221L 170.268 107.221C 176.284 107.221 181.166 112.104 181.166 118.119L 181.166 118.119C 181.166 124.134 176.284 129.016 170.268 129.016L 118.986 129.016C 112.971 129.016 108.089 124.134 108.089 118.119L 108.089 118.119C 108.089 112.104 112.971 107.221 118.986 107.221z"/>
<path style="stroke:#000000; stroke-width:1; fill:none" d="M 118.986 132.221L 170.268 132.221C 176.284 132.221 181.166 137.104 181.166 143.119L 181.166 143.119C 181.166 149.134 176.284 154.017 170.268 154.017L 118.986 154.017C 112.971 154.017 108.089 149.134 108.089 143.119L 108.089 143.119C 108.089 137.104 112.971 132.221 118.986 132.221z"/>
<path style="stroke:#000000; stroke-width:1; fill:none" d="M 118.986 157.222L 170.268 157.222C 176.284 157.222 181.166 162.104 181.166 168.119L 181.166 168.119C 181.166 174.134 176.284 179.017 170.268 179.017L 118.986 179.017C 112.971 179.017 108.089 174.134 108.089 168.119L 108.089 168.119C 108.089 162.104 112.971 157.222 118.986 157.222z"/>
</g>
</g>
</svg>