<?xml version="1.0" encoding="ISO-8859-1" standalone="yes"?>
<svg width="176.868" height="41.5803">
<g>
<path style="stroke:#000000; stroke-width:2; fill:none" d="M 10.4817 30.4817L 30.4817 30.4817L 30.4817 10.4817L 10.4817 10.4817L 10.4817 30.4817z"/>
<path style="stroke:#000000; stroke-width:2; fill:none" d="M 30.4817 30.4817L 50.4817 30.4817L 50.4817 10.4817L 30.4817 10.4817L 30.4817 30.4817z"/>
<path style="stroke:#000000; stroke-width:1; fill:#80e2aa" d="M 54.9379 31.0986L 66.9379 31.0986C 69.1458 31.0986 70.9379 29.3065 70.9379 27.0986L 70.9379 15.0986C 70.9379 12.8907 69.1458 11.0986 66.9379 11.0986L 54.9379 11.0986C 52.7301 11.0986 50.9379 12.8907 50.9379 15.0986L 50.9379 27.0986C 50.9379 29.3065 52.7301 31.0986 54.9379 31.0986z"/>
<path style="stroke:#000000; stroke-width:2; fill:none" d="M 70.9379 31.0986L 90.9379 31.0986L 90.9379 11.0986L 70.9379 11.0986L 70.9379 31.0986z"/>
<path style="stroke:#000000; stroke-width:1; fill:none" d="M 94.9379 31.0986L 106.938 31.0986C 109.146 31.0986 110.938 29.3065 110.938 27.0986L 110.938 15.0986C 110.938 12.8907 109.146 11.0986 106.938 11.0986L 94.9379 11.0986C 92.7301 11.0986 90.9379 12.8907 90.9379 15.0986L 90.9379 27.0986C 90.9379 29.3065 92.7301 31.0986 94.9379 31.0986z"/>
<path style="stroke:#000000; stroke-width:2; fill:none" d="M 111.036 30.7409L 131.036 30.7409L 131.036 10.7409L 111.036 10.7409L 111.036 30.7409z"/>
<path style="stroke:#000000; stroke-width:1; fill:none" d="M 135.394 30.7409L 147.394 30.7409C 149.602 30.7409 151.394 28.9488 151.394 26.7409L 151.394 14.7409C 151.394 12.533 149.602 10.7409 147.394 10.7409L 135.394 10.7409C 133.186 10.7409 131.394 12.533 131.394 14.7409L 131.394 26.7409C 131.394 28.9488 133.186 30.7409 135.394 30.7409z"/>
<path style="stroke:#000000; stroke-width:1; fill:#ffbbc4" d="M 155.627 30.7409L 167.627 30.7409C 169.835 30.7409 171.627 28.9488 171.627 26.7409L 171.627 14.7409C 171.627 12.533 169.835 10.7409 167.627 10.7409L 155.627 10.7409C 153.419 10.7409 151.627 12.533 151.627 14.7409L 151.627 26.7409C 151.627 28.9488 153.419 30.7409 155.627 30.7409z"/>
<text style="stroke:none; fill:#000000; font-family:Times; font-size:12" transform="matrix(1 0 0 1 17.1457 23.2777)">
S
</text >
<text style="stroke:none; fill:#000000; font-family:Times; font-size:12" transform="matrix(1 0 0 1 36.1497 23.2777)">
D
</text >
<text style="stroke:none; fill:#000000; font-family:Times; font-size:12" transform="matrix(1 0 0 1 75.2739 23.8946)">
W
</text >
<text style="stroke:none; fill:#000000; font-family:Times; font-size:12" transform="matrix(1 0 0 1 117.37 23.5369)">
E
</text >
</g>
</svg>